<svg aria-hidden="true" style="position: absolute; width: 0; height: 0; overflow: hidden;" version="1.1" xmlns="http://www.w3.org/2000/svg" xmlns:xlink="http://www.w3.org/1999/xlink">
<defs>
<symbol id="icon-magic" viewBox="0 0 26 28">
<path d="M18.594 9.078l4.578-4.578-1.672-1.672-4.578 4.578zM25.578 4.5c0 0.266-0.094 0.516-0.281 0.703l-20.094 20.094c-0.187 0.187-0.438 0.281-0.703 0.281s-0.516-0.094-0.703-0.281l-3.094-3.094c-0.187-0.187-0.281-0.438-0.281-0.703s0.094-0.516 0.281-0.703l20.094-20.094c0.187-0.187 0.438-0.281 0.703-0.281s0.516 0.094 0.703 0.281l3.094 3.094c0.187 0.187 0.281 0.438 0.281 0.703zM4.469 1.531l1.531 0.469-1.531 0.469-0.469 1.531-0.469-1.531-1.531-0.469 1.531-0.469 0.469-1.531zM9.938 4.062l3.063 0.938-3.063 0.938-0.938 3.063-0.938-3.063-3.063-0.938 3.063-0.938 0.938-3.063zM24.469 11.531l1.531 0.469-1.531 0.469-0.469 1.531-0.469-1.531-1.531-0.469 1.531-0.469 0.469-1.531zM14.469 1.531l1.531 0.469-1.531 0.469-0.469 1.531-0.469-1.531-1.531-0.469 1.531-0.469 0.469-1.531z"></path>
</symbol>
<symbol id="icon-magic-wand" viewBox="0 0 32 32">
<path d="M8 6l-4-4h-2v2l4 4zM10 0h2v4h-2zM18 10h4v2h-4zM20 4v-2h-2l-4 4 2 2zM0 10h4v2h-4zM10 18h2v4h-2zM2 18v2h2l4-4-2-2zM31.563 27.563l-19.879-19.879c-0.583-0.583-1.538-0.583-2.121 0l-1.879 1.879c-0.583 0.583-0.583 1.538 0 2.121l19.879 19.879c0.583 0.583 1.538 0.583 2.121 0l1.879-1.879c0.583-0.583 0.583-1.538 0-2.121zM15 17l-6-6 2-2 6 6-2 2z"></path>
</symbol>
<symbol id="icon-news" viewBox="0 0 24 24">
<path d="M21 4h-18c-1.104 0-2 0.896-2 2v12c0 1.104 0.896 2 2 2h18c1.104 0 2-0.896 2-2v-12c0-1.104-0.896-2-2-2zM3 6h8v12h-8v-12zM21 18h-9v-12h9.003l-0.003 12z"></path>
<path d="M20 13.5c0-0.275-0.225-0.5-0.5-0.5h-1c-0.275 0-0.5 0.225-0.5 0.5v3c0 0.275 0.225 0.5 0.5 0.5h1c0.275 0 0.5-0.225 0.5-0.5v-3z"></path>
<path d="M17 7.5c0-0.275-0.225-0.5-0.5-0.5h-3c-0.275 0-0.5 0.225-0.5 0.5v5c0 0.275 0.225 0.5 0.5 0.5h3c0.275 0 0.5-0.225 0.5-0.5v-5z"></path>
<path d="M18.5 10h1c0.275 0 0.5-0.225 0.5-0.5s-0.225-0.5-0.5-0.5h-1c-0.275 0-0.5 0.225-0.5 0.5s0.225 0.5 0.5 0.5z"></path>
<path d="M18.5 12h1c0.275 0 0.5-0.225 0.5-0.5s-0.225-0.5-0.5-0.5h-1c-0.275 0-0.5 0.225-0.5 0.5s0.225 0.5 0.5 0.5z"></path>
<path d="M13.5 15h3c0.275 0 0.5-0.225 0.5-0.5s-0.225-0.5-0.5-0.5h-3c-0.275 0-0.5 0.225-0.5 0.5s0.225 0.5 0.5 0.5z"></path>
<path d="M16.5 16h-3c-0.275 0-0.5 0.225-0.5 0.5s0.225 0.5 0.5 0.5h3c0.275 0 0.5-0.225 0.5-0.5s-0.225-0.5-0.5-0.5z"></path>
<path d="M18.5 8h1c0.275 0 0.5-0.225 0.5-0.5s-0.225-0.5-0.5-0.5h-1c-0.275 0-0.5 0.225-0.5 0.5s0.225 0.5 0.5 0.5z"></path>
<path d="M10 7.5c0-0.275-0.225-0.5-0.5-0.5h-5c-0.275 0-0.5 0.225-0.5 0.5v3c0 0.275 0.225 0.5 0.5 0.5h5c0.275 0 0.5-0.225 0.5-0.5v-3z"></path>
<path d="M9.501 14h-5c-0.274 0-0.5 0.225-0.5 0.5s0.226 0.5 0.5 0.5h5c0.274 0 0.499-0.225 0.499-0.5s-0.225-0.5-0.499-0.5z"></path>
<path d="M9.501 12h-5c-0.274 0-0.5 0.225-0.5 0.5s0.226 0.5 0.5 0.5h5c0.274 0 0.499-0.225 0.499-0.5s-0.225-0.5-0.499-0.5z"></path>
<path d="M9.501 16h-5c-0.274 0-0.5 0.225-0.5 0.5s0.226 0.5 0.5 0.5h5c0.274 0 0.499-0.225 0.499-0.5s-0.225-0.5-0.499-0.5z"></path>
</symbol>
<symbol id="icon-image-outline" viewBox="0 0 24 24">
<path d="M8.5 7.999c0.827 0 1.5 0.673 1.5 1.5s-0.673 1.5-1.5 1.5-1.5-0.673-1.5-1.5 0.673-1.5 1.5-1.5M8.5 6.999c-1.381 0-2.5 1.119-2.5 2.5s1.119 2.5 2.5 2.5 2.5-1.119 2.5-2.5-1.119-2.5-2.5-2.5z"></path>
<path d="M16 11.999c0.45 0.051 1.27 1.804 1.779 4.001h-11.392c0.434-1.034 1.055-2.001 1.612-2.001 0.806 0 1.125 0.185 1.53 0.42 0.447 0.258 1.006 0.58 1.97 0.58 1.138 0 1.942-0.885 2.653-1.666 0.627-0.687 1.218-1.334 1.848-1.334M16 10.999c-2 0-3 3-4.5 3s-1.499-1-3.5-1c-2 0-3.001 4-3.001 4h14.001c0 0-1-6-3-6z"></path>
<path d="M22 6c0-1.104-0.896-2-2-2h-16c-1.104 0-2 0.896-2 2v12c0 1.104 0.896 2 2 2h16c1.104 0 2-0.896 2-2v-12zM20 18h-16v-12h16.003l-0.003 12z"></path>
</symbol>
<symbol id="icon-message-typing" viewBox="0 0 24 24">
<path d="M18 6h-13c-1.65 0-3 1.35-3 3v7c0 1.65 1.35 3 3 3h1v3l3-3h9c1.65 0 3-1.35 3-3v-7c0-1.65-1.35-3-3-3zM19 16c0 0.542-0.458 1-1 1h-13c-0.542 0-1-0.458-1-1v-7c0-0.542 0.458-1 1-1h13c0.542 0 1 0.458 1 1v7z"></path>
<path d="M7 14.5c-1.104 0-2-0.896-2-2s0.896-2 2-2 2 0.896 2 2-0.896 2-2 2zM7 11.5c-0.552 0-1 0.448-1 1s0.448 1 1 1 1-0.448 1-1-0.448-1-1-1z"></path>
<path d="M11.5 14.5c-1.104 0-2-0.896-2-2s0.896-2 2-2 2 0.896 2 2-0.896 2-2 2zM11.5 11.5c-0.552 0-1 0.448-1 1s0.448 1 1 1 1-0.448 1-1-0.448-1-1-1z"></path>
<path d="M16 14.5c-1.104 0-2-0.896-2-2s0.896-2 2-2 2 0.896 2 2-0.896 2-2 2zM16 11.5c-0.552 0-1 0.448-1 1s0.448 1 1 1 1-0.448 1-1-0.448-1-1-1z"></path>
</symbol>
<symbol id="icon-brush" viewBox="0 0 24 24">
<path d="M20.177 3.823c-0.382-0.383-0.894-0.586-1.415-0.586-0.25 0-0.503 0.047-0.744 0.144-4.449 1.787-7.792 4.76-10.517 9.357-0.102 0.172-0.163 0.355-0.209 0.542-1.38 0.215-2.6 0.903-3.442 1.993-0.916 1.185-1.295 2.695-1.066 4.254l0.216 1.473 1.473 0.217c0.293 0.043 0.589 0.064 0.88 0.064 2.743 0 4.949-1.909 5.367-4.564 0.188-0.047 0.371-0.115 0.544-0.218 4.598-2.728 7.571-6.069 9.355-10.517 0.298-0.743 0.123-1.593-0.442-2.159zM5.353 19.281c-0.192 0-0.389-0.016-0.59-0.044-0.309-2.104 1.055-3.81 3-4.021l1.021 1.021c-0.192 1.76-1.605 3.044-3.431 3.044zM10.243 14.779l-1.021-1.021c0.38-0.641 0.774-1.233 1.178-1.804 0.027 0.041 1.639 1.653 1.639 1.653-0.568 0.401-1.158 0.794-1.796 1.172zM12.851 13.006c0 0-1.821-1.801-1.879-1.824 2.147-2.784 4.651-4.685 7.791-5.943-1.255 3.127-3.144 5.623-5.912 7.767z"></path>
</symbol>
<symbol id="icon-thumbs-up" viewBox="0 0 24 24">
<path d="M19.57 8.676c-0.391-0.144-2.512-0.406-3.883-0.56 0.215-1.255 0.313-2.405 0.313-3.616 0-1.379-1.122-2.5-2.5-2.5s-2.5 1.121-2.5 2.5c0 1.875-0.666 2.738-1.616 3.699-0.548-0.722-1.407-1.199-2.384-1.199-1.654 0-3 1.346-3 3v6c0 1.654 1.346 3 3 3 0.755 0 1.438-0.29 1.965-0.752 0.064 0.062 0.117 0.141 0.188 0.193 0.96 0.736 3.667 1.559 5.848 1.559 1.879 0 2.608-0.293 3.253-0.553 0.104-0.041 0.207-0.084 0.316-0.123 0.834-0.305 1.576-1.227 1.736-2.2l0.666-5.974c0.173-1.037-0.443-2.125-1.402-2.474zM7 17c-0.551 0-1-0.448-1-1v-6c0-0.552 0.449-1 1-1s1 0.448 1 1v6c0 0.552-0.449 1-1 1zM18.327 16.85c-0.037 0.224-0.292 0.541-0.443 0.596-0.131 0.049-0.254 0.099-0.376 0.146-0.545 0.219-1.016 0.408-2.508 0.408-1.914 0-4.118-0.753-4.632-1.146-0.158-0.12-0.368-0.564-0.368-0.854v-4.98c0.003-0.047 0.051-0.656 0.707-1.312 0.913-0.914 2.293-2.294 2.293-5.208 0-0.275 0.225-0.5 0.5-0.5s0.5 0.225 0.5 0.5c0 1.407-0.146 2.73-0.479 4.293l-0.297 1.396 1.321-0.188c0.603 0.050 3.933 0.447 4.334 0.55 0.058 0.030 0.132 0.183 0.111 0.323l-0.663 5.976z"></path>
</symbol>
<symbol id="icon-clipboard" viewBox="0 0 24 24">
<path d="M17 3h-10c-1.654 0-3 1.346-3 3v12c0 1.654 1.346 3 3 3h10c1.654 0 3-1.346 3-3v-12c0-1.654-1.346-3-3-3zM9 5h6v1c0 0.551-0.449 1-1 1h-4c-0.551 0-1-0.449-1-1v-1zM18 18c0 0.551-0.449 1-1 1h-10c-0.551 0-1-0.449-1-1v-12c0-0.551 0.449-1 1-1h1c0 0.262 0 0.601 0 1 0 1.1 0.9 2 2 2h4c1.1 0 2-0.9 2-2 0-0.399 0-0.738 0-1h1c0.551 0 1 0.449 1 1v12z"></path>
<path d="M16 17h-8c-0.276 0-0.5-0.224-0.5-0.5s0.224-0.5 0.5-0.5h8c0.276 0 0.5 0.224 0.5 0.5s-0.224 0.5-0.5 0.5z"></path>
<path d="M16 14h-8c-0.276 0-0.5-0.224-0.5-0.5s0.224-0.5 0.5-0.5h8c0.276 0 0.5 0.224 0.5 0.5s-0.224 0.5-0.5 0.5z"></path>
<path d="M16 11h-8c-0.276 0-0.5-0.224-0.5-0.5s0.224-0.5 0.5-0.5h8c0.276 0 0.5 0.224 0.5 0.5s-0.224 0.5-0.5 0.5z"></path>
</symbol>
<symbol id="icon-lightbulb" viewBox="0 0 24 24">
<path d="M12.5 5.5c-0.276 0-0.5 0.224-0.5 0.5s0.224 0.5 0.5 0.5c1.083 0 1.964 0.881 1.964 1.964 0 0.276 0.224 0.5 0.5 0.5s0.5-0.224 0.5-0.5c0-1.634-1.33-2.964-2.964-2.964z"></path>
<path d="M12.5 1c-4.136 0-7.5 3.364-7.5 7.5 0 1.486 0.44 2.922 1.274 4.165 0.023 0.047 0.049 0.092 0.080 0.135 1.825 2.606 2.146 3.43 2.146 4.2v3c0 0.552 0.448 1 1 1h2c0 0.26 0.11 0.52 0.29 0.71 0.19 0.18 0.45 0.29 0.71 0.29s0.52-0.11 0.71-0.29c0.18-0.19 0.29-0.45 0.29-0.71h2c0.552 0 1-0.448 1-1v-3c0-0.782 0.319-1.61 2.132-4.199 0.895-1.275 1.368-2.762 1.368-4.301 0-4.136-3.364-7.5-7.5-7.5zM14.5 19h-4v-1h4v1zM16.995 11.653c-1.466 2.093-2.143 3.289-2.385 4.347h-1.11v-2c0-0.552-0.448-1-1-1s-1 0.448-1 1v2h-1.113c-0.24-1.030-0.898-2.2-2.306-4.22-0.022-0.044-0.048-0.087-0.077-0.129-0.657-0.934-1.004-2.024-1.004-3.151 0-3.033 2.467-5.5 5.5-5.5s5.5 2.467 5.5 5.5c0 1.126-0.347 2.216-1.005 3.153z"></path>
</symbol>
<symbol id="icon-note" viewBox="0 0 32 32">
<path d="M31.414 7.585l-6-6c-0.375-0.375-0.885-0.585-1.414-0.585h-21c-1.654 0-3 1.345-3 3v24c0 1.654 1.346 3 3 3h26c1.654 0 3-1.346 3-3v-19c0-0.531-0.211-1.040-0.586-1.415zM30 28c0 0.553-0.447 1-1 1h-26c-0.553 0-1-0.447-1-1v-24c0-0.553 0.447-1 1-1h20v4h-0.002c0 1.657 1.344 3 3 3h4.002v18zM26.998 9h-1c-1.102 0-2-0.897-2-2h0.002v-4l6 6h-3.002zM15.5 8c-0.276 0-0.5-0.223-0.5-0.5s0.224-0.5 0.5-0.5h5c0.275 0 0.5 0.224 0.5 0.5s-0.225 0.5-0.5 0.5h-5zM15.5 11c-0.276 0-0.5-0.224-0.5-0.5s0.224-0.5 0.5-0.5h5c0.275 0 0.5 0.224 0.5 0.5s-0.225 0.5-0.5 0.5h-5zM15 13.5c0-0.277 0.224-0.5 0.5-0.5h12c0.275 0 0.5 0.224 0.5 0.5s-0.225 0.5-0.5 0.5h-12c-0.276 0-0.5-0.224-0.5-0.5zM27.5 19c0.275 0 0.5 0.223 0.5 0.5 0 0.275-0.225 0.5-0.5 0.5h-23c-0.276 0-0.5-0.225-0.5-0.5 0-0.277 0.224-0.5 0.5-0.5h23zM27.5 22c0.275 0 0.5 0.223 0.5 0.5 0 0.275-0.225 0.5-0.5 0.5h-23c-0.276 0-0.5-0.225-0.5-0.5 0-0.277 0.224-0.5 0.5-0.5h23zM27.5 25c0.275 0 0.5 0.223 0.5 0.5 0 0.275-0.225 0.5-0.5 0.5h-23c-0.276 0-0.5-0.225-0.5-0.5 0-0.277 0.224-0.5 0.5-0.5h23zM27.5 16c0.275 0 0.5 0.224 0.5 0.5s-0.225 0.5-0.5 0.5h-23c-0.276 0-0.5-0.223-0.5-0.5s0.224-0.5 0.5-0.5h23zM5 14h7c0.553 0 1-0.447 1-1v-6c0-0.553-0.447-1-1-1h-7c-0.553 0-1 0.447-1 1v6c0 0.552 0.447 1 1 1zM6 8h5v4h-5v-4z"></path>
</symbol>
<symbol id="icon-creative-commons-attribution" viewBox="0 0 20 20">
<path d="M12.583 7.623c0-0.342-0.278-0.62-0.62-0.62h-3.927c-0.342 0-0.62 0.277-0.62 0.62v3.927h1.095v4.65h2.976v-4.65h1.095v-3.927z"></path>
<path d="M11.343 5.143c0 0.742-0.601 1.343-1.343 1.343s-1.343-0.601-1.343-1.343c0-0.742 0.601-1.343 1.343-1.343s1.343 0.601 1.343 1.343z"></path>
<path d="M9.988 0.4c-2.659 0-4.91 0.928-6.752 2.784-1.891 1.92-2.835 4.192-2.835 6.816s0.945 4.88 2.835 6.768c1.89 1.888 4.141 2.832 6.752 2.832 2.643 0 4.934-0.952 6.873-2.856 1.826-1.808 2.74-4.056 2.74-6.744s-0.929-4.96-2.788-6.816c-1.859-1.856-4.133-2.784-6.825-2.784zM10.012 2.128c2.179 0 4.029 0.768 5.551 2.304 1.538 1.52 2.307 3.376 2.307 5.568 0 2.208-0.753 4.040-2.259 5.496-1.586 1.568-3.452 2.352-5.599 2.352s-3.997-0.776-5.551-2.328-2.331-3.392-2.331-5.52c0-2.128 0.785-3.984 2.355-5.568 1.506-1.536 3.348-2.304 5.527-2.304z"></path>
</symbol>
<symbol id="icon-check" viewBox="0 0 20 20">
<path d="M8.294 16.998c-0.435 0-0.847-0.203-1.111-0.553l-3.573-4.721c-0.465-0.613-0.344-1.486 0.27-1.951 0.615-0.467 1.488-0.344 1.953 0.27l2.351 3.104 5.911-9.492c0.407-0.652 1.267-0.852 1.921-0.445s0.854 1.266 0.446 1.92l-6.984 11.21c-0.242 0.391-0.661 0.635-1.12 0.656-0.022 0.002-0.042 0.002-0.064 0.002z"></path>
</symbol>
<symbol id="icon-clock" viewBox="0 0 20 20">
<path d="M10 0.4c-5.303 0-9.601 4.298-9.601 9.6 0 5.303 4.298 9.601 9.601 9.601 5.301 0 9.6-4.298 9.6-9.601s-4.299-9.6-9.6-9.6zM9.999 17.6c-4.197 0-7.6-3.402-7.6-7.6 0-4.197 3.402-7.6 7.6-7.6 4.197 0 7.601 3.402 7.601 7.6 0 4.197-3.404 7.6-7.601 7.6zM11 9.33v-5.33h-2v6.245l-3.546 2.048 1 1.732 4.115-2.377c0.238-0.137 0.431-0.473 0.431-0.748v-0.168l4.24-4.166c-0.198-0.271-0.411-0.529-0.647-0.766l-3.593 3.53z"></path>
</symbol>
<symbol id="icon-light-bulb" viewBox="0 0 20 20">
<path d="M7.186 19.172c0.789 0.51 1.701 0.855 2.814 0.828 1.111 0.027 2.025-0.318 2.814-0.828l-0.017-2.172h-5.594l-0.017 2.172zM12.697 16c0-4.357 4.63-5.848 4.283-10.188-0.218-2.738-2.073-5.81-6.98-5.81s-6.762 3.072-6.981 5.811c-0.347 4.339 4.284 5.83 4.284 10.187h5.394zM5 6c0.207-2.598 2.113-4 5-4s4.654 1.371 4.861 3.969c0.113 1.424-0.705 2.373-1.809 3.926-0.814 1.146-1.603 2.343-2.052 4.105h-2c-0.449-1.762-1.238-2.959-2.053-4.106-1.103-1.552-2.061-2.47-1.947-3.894z"></path>
</symbol>
<symbol id="icon-light-up" viewBox="0 0 20 20">
<path d="M19 9.199c-0.182 0-0.799 0-0.98 0-0.553 0-1 0.359-1 0.801s0.447 0.799 1 0.799c0.182 0 0.799 0 0.98 0 0.552 0 1-0.357 1-0.799 0-0.441-0.449-0.801-1-0.801zM10 4.5c-3.051 0-5.5 2.449-5.5 5.5s2.449 5.5 5.5 5.5c3.050 0 5.5-2.449 5.5-5.5s-2.451-5.5-5.5-5.5zM10 14c-2.211 0-4-1.791-4-4 0-2.211 1.789-4 4-4 2.209 0 4 1.789 4 4 0 2.209-1.791 4-4 4zM3 10c0-0.441-0.449-0.801-1-0.801-0.185 0-0.816 0-1 0-0.553 0-1 0.359-1 0.801s0.447 0.799 1 0.799c0.184 0 0.815 0 1 0 0.551 0 1-0.358 1-0.799zM10 3c0.441 0 0.799-0.447 0.799-1 0-0.184 0-0.816 0-1 0-0.553-0.358-1-0.799-1s-0.801 0.447-0.801 1c0 0.184 0 0.816 0 1 0 0.553 0.359 1 0.801 1zM10 17c-0.442 0-0.801 0.447-0.801 1 0 0.184 0 0.816 0 1 0 0.553 0.359 1 0.801 1s0.799-0.447 0.799-1c0-0.184 0-0.816 0-1 0-0.553-0.358-1-0.799-1zM17.365 3.766c0.391-0.391 0.454-0.961 0.142-1.273s-0.883-0.248-1.272 0.143c-0.108 0.107-0.593 0.592-0.7 0.699-0.391 0.391-0.454 0.961-0.142 1.273s0.883 0.248 1.273-0.143c0.107-0.108 0.591-0.592 0.699-0.699zM3.334 15.533c-0.108 0.109-0.593 0.594-0.7 0.701-0.391 0.391-0.454 0.959-0.142 1.271s0.883 0.25 1.272-0.141c0.108-0.107 0.593-0.592 0.7-0.699 0.391-0.391 0.454-0.961 0.142-1.274s-0.883-0.247-1.272 0.142zM3.765 2.635c-0.39-0.391-0.961-0.455-1.273-0.143s-0.248 0.883 0.141 1.274c0.108 0.107 0.593 0.592 0.7 0.699 0.391 0.391 0.96 0.455 1.272 0.143s0.249-0.883-0.141-1.273c-0.107-0.108-0.591-0.593-0.699-0.7zM15.534 16.666c0.108 0.107 0.593 0.592 0.7 0.699 0.391 0.391 0.96 0.453 1.272 0.143 0.312-0.312 0.249-0.883-0.142-1.273-0.107-0.107-0.592-0.592-0.699-0.699-0.391-0.391-0.961-0.455-1.274-0.143s-0.248 0.882 0.143 1.273z"></path>
</symbol>
<symbol id="icon-rocket" viewBox="0 0 20 20">
<path d="M11.933 13.069c0 0 7.059-5.094 6.276-10.924-0.017-0.127-0.059-0.213-0.112-0.268-0.054-0.055-0.137-0.098-0.263-0.115-5.697-0.801-10.674 6.422-10.674 6.422-4.318-0.517-4.004 0.344-5.974 5.076-0.377 0.902 0.234 1.213 0.904 0.959 0.67-0.252 2.148-0.811 2.148-0.811l2.59 2.648c0 0-0.546 1.514-0.793 2.199s0.055 1.311 0.938 0.926c4.624-2.016 5.466-1.694 4.96-6.112zM12.942 7.153c-0.598-0.613-0.598-1.604 0-2.217 0.598-0.611 1.567-0.611 2.166 0s0.598 1.603 0 2.217c-0.599 0.611-1.569 0.611-2.166 0z"></path>
</symbol>
<symbol id="icon-round-brush" viewBox="0 0 20 20">
<path d="M12.135 9.304c-2.558-1.879-6.7 1.17-7.632 5.284-0.718 3.17-4.043 3.040-3.996 3.464 0.046 0.424 7.473 1.103 10.156-1.123 2.506-2.080 4.277-5.564 1.472-7.625zM14.338 1.508l-3.363 5.156c1.102 0.179 3.635 1.885 4.121 3.109l4.396-4.246c-0.526-1.503-3.438-3.844-5.154-4.019z"></path>
</symbol>
<symbol id="icon-spotify" viewBox="0 0 20 20">
<path d="M10 1.2c-4.861 0-8.8 3.938-8.8 8.8 0 4.859 3.939 8.8 8.8 8.8s8.799-3.94 8.799-8.8c0-4.861-3.936-8.8-8.799-8.8zM13.478 14.502c-0.173 0-0.294-0.066-0.421-0.143-1.189-0.721-2.662-1.099-4.258-1.099-0.814 0-1.693 0.097-2.61 0.285l-0.112 0.028c-0.116 0.028-0.235 0.059-0.326 0.059-0.371 0-0.661-0.288-0.661-0.656 0-0.373 0.21-0.637 0.562-0.703 1.096-0.25 2.128-0.372 3.152-0.372 1.855 0 3.513 0.43 4.931 1.279 0.243 0.142 0.396 0.306 0.396 0.668-0.001 0.361-0.293 0.654-0.653 0.654zM14.391 11.941c-0.207 0-0.343-0.079-0.463-0.149-2.143-1.271-5.333-1.693-7.961-0.993-0.044 0.013-0.084 0.025-0.12 0.037-0.099 0.031-0.191 0.062-0.321 0.062-0.432 0-0.783-0.353-0.783-0.788 0-0.419 0.219-0.712 0.614-0.824 1.013-0.278 1.964-0.462 3.333-0.462 2.212 0 4.357 0.555 6.038 1.561 0.306 0.175 0.445 0.414 0.445 0.771 0 0.434-0.351 0.785-0.782 0.785zM15.427 9.021c-0.195 0-0.315-0.047-0.495-0.144-1.453-0.872-3.72-1.391-6.069-1.391-1.224 0-2.336 0.135-3.306 0.397-0.033 0.008-0.064 0.017-0.098 0.027-0.103 0.031-0.232 0.068-0.365 0.068-0.516 0-0.919-0.408-0.919-0.929 0-0.453 0.254-0.799 0.68-0.925 1.171-0.346 2.519-0.521 4.006-0.521 2.678 0 5.226 0.595 6.991 1.631 0.332 0.189 0.495 0.475 0.495 0.872 0 0.513-0.404 0.915-0.92 0.915z"></path>
</symbol>
<symbol id="icon-facebook-with-circle" viewBox="0 0 20 20">
<path d="M10 0.4c-5.302 0-9.6 4.298-9.6 9.6s4.298 9.6 9.6 9.6 9.6-4.298 9.6-9.6-4.298-9.6-9.6-9.6zM12.274 7.034h-1.443c-0.171 0-0.361 0.225-0.361 0.524v1.042h1.805l-0.273 1.486h-1.532v4.461h-1.703v-4.461h-1.545v-1.486h1.545v-0.874c0-1.254 0.87-2.273 2.064-2.273h1.443v1.581z"></path>
</symbol>
<symbol id="icon-google-with-circle" viewBox="0 0 20 20">
<path d="M10 0.4c-5.302 0-9.6 4.298-9.6 9.6s4.298 9.6 9.6 9.6 9.6-4.298 9.6-9.6-4.298-9.6-9.6-9.6zM9.447 14.121c-0.603 0.293-1.252 0.324-1.503 0.324-0.048 0-0.075 0-0.075 0s-0.023 0-0.054 0c-0.392 0-2.343-0.090-2.343-1.867 0-1.746 2.125-1.883 2.776-1.883h0.017c-0.376-0.502-0.298-1.008-0.298-1.008-0.033 0.002-0.081 0.004-0.14 0.004-0.245 0-0.718-0.039-1.124-0.301-0.498-0.32-0.75-0.865-0.75-1.619 0-2.131 2.327-2.217 2.35-2.219h2.324v0.051c0 0.26-0.467 0.311-0.785 0.354-0.108 0.016-0.325 0.037-0.386 0.068 0.589 0.315 0.684 0.809 0.684 1.545 0 0.838-0.328 1.281-0.676 1.592-0.216 0.193-0.385 0.344-0.385 0.547 0 0.199 0.232 0.402 0.502 0.639 0.441 0.389 1.046 0.918 1.046 1.811 0 0.923-0.397 1.583-1.18 1.962zM14.5 10h-1.5v1.5h-1v-1.5h-1.5v-1h1.5v-1.5h1v1.5h1.5v1zM8.223 11.15c-0.052 0-0.104 0.002-0.157 0.006-0.444 0.033-0.854 0.199-1.15 0.469-0.294 0.266-0.444 0.602-0.423 0.941 0.045 0.711 0.808 1.127 1.735 1.061 0.912-0.066 1.52-0.592 1.476-1.303-0.042-0.668-0.623-1.174-1.481-1.174zM9.097 7.285c-0.242-0.85-0.632-1.102-1.238-1.102-0.065 0-0.131 0.010-0.194 0.027-0.263 0.075-0.472 0.294-0.588 0.62-0.119 0.33-0.126 0.674-0.024 1.066 0.185 0.701 0.683 1.209 1.185 1.209 0.066 0 0.132-0.008 0.194-0.027 0.549-0.154 0.893-0.992 0.665-1.793z"></path>
</symbol>
<symbol id="icon-instagram-with-circle" viewBox="0 0 20 20">
<path d="M13 10c0 1.657-1.343 3-3 3s-3-1.343-3-3c0-0.171 0.018-0.338 0.049-0.5h-1.049v3.997c0 0.278 0.225 0.503 0.503 0.503h6.995c0.277 0 0.502-0.225 0.502-0.503v-3.997h-1.049c0.031 0.162 0.049 0.329 0.049 0.5zM10 12c1.104 0 2-0.896 2-2s-0.896-2-2-2-2 0.896-2 2 0.896 2 2 2zM12.4 7.9h1.199c0.166 0 0.301-0.135 0.301-0.3v-1.199c0-0.166-0.135-0.301-0.301-0.301h-1.199c-0.166 0-0.301 0.135-0.301 0.301v1.199c0.001 0.165 0.136 0.3 0.301 0.3zM10 0.4c-5.302 0-9.6 4.298-9.6 9.6s4.298 9.6 9.6 9.6c5.302 0 9.6-4.298 9.6-9.6s-4.298-9.6-9.6-9.6zM15 13.889c0 0.611-0.5 1.111-1.111 1.111h-7.778c-0.611 0-1.111-0.5-1.111-1.111v-7.778c0-0.611 0.5-1.111 1.111-1.111h7.778c0.611 0 1.111 0.5 1.111 1.111v7.778z"></path>
</symbol>
<symbol id="icon-linkedin-with-circle" viewBox="0 0 20 20">
<path d="M10 0.4c-5.302 0-9.6 4.298-9.6 9.6s4.298 9.6 9.6 9.6 9.6-4.298 9.6-9.6-4.298-9.6-9.6-9.6zM7.65 13.979h-1.944v-6.256h1.944v6.256zM6.666 6.955c-0.614 0-1.011-0.435-1.011-0.973 0-0.549 0.409-0.971 1.036-0.971s1.011 0.422 1.023 0.971c0 0.538-0.396 0.973-1.048 0.973zM14.75 13.979h-1.944v-3.467c0-0.807-0.282-1.355-0.985-1.355-0.537 0-0.856 0.371-0.997 0.728-0.052 0.127-0.065 0.307-0.065 0.486v3.607h-1.945v-4.26c0-0.781-0.025-1.434-0.051-1.996h1.689l0.089 0.869h0.039c0.256-0.408 0.883-1.010 1.932-1.010 1.279 0 2.238 0.857 2.238 2.699v3.699z"></path>
</symbol>
<symbol id="icon-twitter-with-circle" viewBox="0 0 20 20">
<path d="M10 0.4c-5.302 0-9.6 4.298-9.6 9.6s4.298 9.6 9.6 9.6 9.6-4.298 9.6-9.6-4.298-9.6-9.6-9.6zM13.905 8.264c0.004 0.082 0.005 0.164 0.005 0.244 0 2.5-1.901 5.381-5.379 5.381-1.068 0-2.062-0.312-2.898-0.85 0.147 0.018 0.298 0.025 0.451 0.025 0.886 0 1.701-0.301 2.348-0.809-0.827-0.016-1.525-0.562-1.766-1.312 0.115 0.021 0.233 0.033 0.355 0.033 0.172 0 0.34-0.023 0.498-0.066-0.865-0.174-1.517-0.938-1.517-1.854v-0.023c0.255 0.141 0.547 0.227 0.857 0.237-0.508-0.34-0.841-0.918-0.841-1.575 0-0.346 0.093-0.672 0.256-0.951 0.933 1.144 2.325 1.896 3.897 1.977-0.033-0.139-0.049-0.283-0.049-0.432 0-1.043 0.846-1.891 1.891-1.891 0.543 0 1.035 0.23 1.38 0.598 0.431-0.086 0.835-0.242 1.2-0.459-0.141 0.441-0.44 0.812-0.831 1.047 0.383-0.047 0.747-0.148 1.086-0.299-0.253 0.379-0.574 0.713-0.943 0.979z"></path>
</symbol>
<symbol id="icon-youtube-with-circle" viewBox="0 0 20 20">
<path d="M11.603 9.833l-2.246-1.048c-0.196-0.091-0.357 0.011-0.357 0.228v1.974c0 0.217 0.161 0.319 0.357 0.228l2.245-1.048c0.197-0.092 0.197-0.242 0.001-0.334zM10 0.4c-5.302 0-9.6 4.298-9.6 9.6s4.298 9.6 9.6 9.6 9.6-4.298 9.6-9.6-4.298-9.6-9.6-9.6zM10 13.9c-4.914 0-5-0.443-5-3.9s0.086-3.9 5-3.9 5 0.443 5 3.9-0.086 3.9-5 3.9z"></path>
</symbol>
</defs>
</svg>
